<?xml version="1.0" encoding="UTF-8"?><svg id="_レイヤー_2" xmlns="http://www.w3.org/2000/svg" viewBox="0 0 1380.94 1182.03"><g id="_レイヤー_3"><path d="M1380.94,597c0-96.46-78.19-174.65-174.65-174.65-33.44,0-64.69,9.41-91.24,25.71h0s-.08.05-.12.07c-4.6,2.83-9.07,5.86-13.37,9.09-.02.01-.04.03-.06.04-51.95,37.36-79.1,81.56-157.5,204.23-12.18,19.06-14.88,23.23-20.12,30.19-14.05,18.62-62.82,83.29-95.48,79.24-44.34-5.5-89.99-141.56-68.93-264.57,10.62-62.06,41.65-140.82,89.07-261.18.04-.1.07-.19.11-.29,1.72-3.92,3.31-7.91,4.75-11.98,0-.02.01-.04.02-.05,0,0,0,0,0,0,6.44-18.22,9.96-37.81,9.96-58.23C863.39,78.75,786.13.93,690.47,0c-69.08.67-128.56,41.43-156.28,100.15h0s0,0,0,.01c-.72,1.52-1.41,3.05-2.08,4.59-2.21,4.85-5.02,10.94-8.31,17.9-37.16,78.63-58.28,123.58-88.54,160.21-48.75,59-110.53,83.68-132.3,92.52-56.19,22.83-125.83,33.27-136.48,34.4-1.42.15-9.23.92-19.67,2.81-.11.02-.21.04-.31.06-6.21,1.01-12.3,2.34-18.27,3.98-.15.04-.31.08-.46.12,0,0,0,0,0,0C54.08,437.25,0,504.82,0,585.03c0,96.46,78.19,174.65,174.65,174.65,33.44,0,64.69-9.41,91.24-25.71,0,0,0,0,0,0,.03-.02.08-.05.12-.07,4.6-2.83,9.07-5.86,13.37-9.09.02-.01.04-.03.06-.04,51.95-37.36,79.1-81.56,157.5-204.23,12.18-19.06,14.88-23.23,20.12-30.19,14.05-18.62,62.82-83.29,95.48-79.24,44.34,5.5,89.99,141.56,68.93,264.57-10.62,62.06-41.65,140.82-89.07,261.18-.04.1-.07.19-.11.29-1.72,3.92-3.31,7.91-4.75,11.98,0,.02-.01.04-.02.05,0,0,0,0,0,0-6.44,18.22-9.96,37.81-9.96,58.23,0,95.88,77.26,173.7,172.92,174.63,69.08-.67,128.56-41.43,156.28-100.15h0s0,0,0-.01c.72-1.52,1.41-3.05,2.08-4.59,2.21-4.85,5.02-10.94,8.31-17.9,37.16-78.63,58.28-123.58,88.54-160.21,48.75-59,110.53-83.68,132.3-92.52,56.19-22.83,125.83-33.27,136.48-34.4,1.42-.15,9.23-.92,19.67-2.81.11-.02.21-.04.31-.06,6.21-1.01,12.3-2.34,18.27-3.98.15-.04.31-.08.46-.12h0c73.68-20.5,127.76-88.07,127.76-168.28Z" fill="#e62152"/><circle cx="1210.37" cy="591.01" r="123.83" fill="#fff"/><circle cx="1242.93" cy="570.81" r="68.95" fill="#131313"/><ellipse cx="1036.87" cy="316.49" rx="26.89" ry="95.04" transform="translate(17.47 685.41) rotate(-36.87)" fill="#e62152"/><ellipse cx="1167.8" cy="316.49" rx="23.2" ry="53.23" transform="translate(-42.12 319.43) rotate(-15.3)" fill="#e62152"/></g></svg>